<svg xmlns="http://www.w3.org/2000/svg" version="1" width="48" height="48" viewBox="0 0 24 24">
    <path d="M 2.1875 0 C 0.9875 0 0 0.9875 0 2.1875 L 0 21.8125 C 0 23.0125 0.9875 24 2.1875 24 L 21.8125 24 C 23.0125 24 24 23.0125 24 21.8125 L 24 2.1875 C 24 0.9875 23.0125 0 21.8125 0 L 2.1875 0 z M 9.1875 3.90625 L 13.59375 3.90625 L 12.1875 4.59375 L 11 4.59375 C 11.5 5.09375 12.5 5.9 12.5 7.5 C 12.5 9.1 11.5875 9.8 10.6875 10.5 C 10.3875 10.8 10.09375 11.1 10.09375 11.5 C 10.09375 12 10.3875 12.20625 10.6875 12.40625 L 11.5 13 C 12.4 13.8 13.3125 14.5 13.3125 16 C 13.3125 18 11.2875 20 7.6875 20 C 4.5875 20 3.09375 18.5 3.09375 17 C 3.09375 16.2 3.5125 15.20625 4.8125 14.40625 C 6.1125 13.60625 7.90625 13.50625 8.90625 13.40625 C 8.60625 13.00625 8.3125 12.6 8.3125 12 C 8.3125 11.6 8.4 11.3875 8.5 11.1875 L 7.8125 11.1875 C 5.3125 11.2875 4 9.60625 4 7.90625 C 4 6.90625 4.50625 5.79375 5.40625 5.09375 C 6.60625 4.09375 8.0875 3.90625 9.1875 3.90625 z M 7.90625 4.59375 C 7.30625 4.59375 6.70625 4.9125 6.40625 5.3125 C 6.00625 5.8125 5.90625 6.40625 5.90625 6.90625 C 5.90625 8.30625 6.69375 10.6875 8.59375 10.6875 C 9.09375 10.6875 9.69375 10.39375 10.09375 10.09375 C 10.59375 9.59375 10.59375 8.89375 10.59375 8.59375 C 10.59375 6.99375 9.70625 4.59375 7.90625 4.59375 z M 17 8 L 19 8 L 19 11 L 22 11 L 22 13 L 19 13 L 19 16 L 17 16 L 17 13 L 14 13 L 14 11 L 17 11 L 17 8 z M 8.90625 14.09375 C 8.70625 14.09375 7.49375 14.10625 6.59375 14.40625 C 6.09375 14.60625 4.8125 15.09375 4.8125 16.59375 C 4.8125 18.09375 6.29375 19.1875 8.59375 19.1875 C 10.69375 19.1875 11.8125 18.20625 11.8125 16.90625 C 11.8125 15.80625 11.1 15.19375 9.5 14.09375 L 8.90625 14.09375 z"/>
</svg>